<svg width="73" height="73" viewBox="0 0 73 73" fill="none" xmlns="http://www.w3.org/2000/svg">
<g clip-path="url(#clip0_116_33)">
<path d="M36.5374 21.8452C33.6263 21.8452 30.7806 22.7071 28.3601 24.3219C25.9395 25.9367 24.053 28.2319 22.939 30.9173C21.8249 33.6026 21.5334 36.5575 22.1014 39.4082C22.6693 42.2589 24.0711 44.8775 26.1296 46.9328C28.1881 48.988 30.8107 50.3877 33.6659 50.9547C36.5211 51.5218 39.4806 51.2307 42.1701 50.1184C44.8596 49.0061 47.1584 47.1225 48.7757 44.7058C50.393 42.2891 51.2563 39.4477 51.2563 36.5412C51.2563 32.6436 49.7056 28.9056 46.9452 26.1496C44.1849 23.3935 40.4411 21.8452 36.5374 21.8452ZM36.5374 43.8891C35.0819 43.8891 33.659 43.4582 32.4487 42.6508C31.2385 41.8434 30.2952 40.6958 29.7382 39.3531C29.1812 38.0104 29.0354 36.533 29.3194 35.1076C29.6034 33.6823 30.3043 32.373 31.3335 31.3454C32.3628 30.3177 33.6741 29.6179 35.1017 29.3344C36.5293 29.0509 38.009 29.1964 39.3538 29.7525C40.6985 30.3087 41.8479 31.2505 42.6566 32.4588C43.4652 33.6672 43.8969 35.0879 43.8969 36.5412C43.8969 38.49 43.1215 40.3589 41.7413 41.737C40.3612 43.115 38.4893 43.8891 36.5374 43.8891Z" fill="black"/>
<path d="M4.48709 68.5415C6.10368 70.0392 8.00485 71.1979 10.078 71.9489C12.1512 72.6999 14.3542 73.0279 16.5566 72.9135C23.6085 72.557 30.4669 70.4888 36.5374 66.8882C42.6113 70.476 49.4696 72.5315 56.5183 72.8768C58.7146 72.9862 60.9107 72.6557 62.9772 71.9049C65.0436 71.154 66.9388 69.998 68.551 68.5047C73.1138 63.949 74.1442 55.9397 71.274 46.4608C70.1884 43.0195 68.7584 39.6961 67.0055 36.541C68.7802 33.3406 70.2228 29.9675 71.3108 26.4743C74.1442 17.1057 73.1506 9.13311 68.5878 4.4304C62.0011 -1.99907 49.4532 -0.933617 36.5374 6.12044C23.6216 -0.933617 11.0738 -1.99907 4.48709 4.54062C-0.259751 9.13311 -1.06929 17.1057 1.76409 26.4743C2.8521 29.9675 4.29468 33.3406 6.06936 36.541C4.29468 39.7415 2.8521 43.1146 1.76409 46.6078C-1.06929 55.9764 -0.259751 63.949 4.48709 68.5415ZM64.2457 48.7387C66.2328 55.3151 65.9016 60.7894 63.3626 63.4346C60.8236 66.0799 52.8386 66.4106 43.8969 62.259C47.4847 59.6967 50.8567 56.846 53.9793 53.7353C57.0067 50.677 59.7875 47.3847 62.2955 43.889C63.0559 45.4638 63.7195 47.0833 64.2825 48.7387H64.2457ZM36.5374 58.585C32.1592 55.747 28.1003 52.4458 24.4312 48.7387C20.6726 45.0472 17.3287 40.9571 14.4591 36.541C20.1768 27.7188 27.7014 20.2059 36.5374 14.4971C40.9144 17.3088 44.9735 20.5855 48.6437 24.2699C52.4065 27.9845 55.7505 32.0994 58.6157 36.541C55.7858 40.9113 52.4918 44.9639 48.7909 48.6285C45.0815 52.3827 40.9727 55.7213 36.5374 58.585ZM56.4447 7.55329C58.9503 7.35978 61.4325 8.15074 63.3626 9.75769C65.9384 12.3295 66.2696 17.767 64.2457 24.4536C63.6905 26.0707 63.0393 27.6533 62.2955 29.1931C59.7233 25.6385 56.8684 22.2966 53.7585 19.1998C50.6998 16.15 47.4021 13.3489 43.8969 10.8231C47.8166 8.90147 52.0844 7.78932 56.4447 7.55329ZM8.79236 24.3434C6.80531 17.767 7.13648 12.2927 9.67549 9.64746C11.6056 8.04052 14.0878 7.24956 16.5934 7.44307C20.974 7.70863 25.2552 8.8585 29.178 10.8231C22.1117 15.9376 15.9019 22.1378 10.7794 29.1931C10.019 27.6183 9.3554 25.9988 8.79236 24.3434ZM19.206 53.7353C22.2934 56.8414 25.6284 59.692 29.178 62.259C20.0891 66.3003 12.6193 66.2636 9.5651 63.2142C6.51093 60.1648 6.65812 55.2049 8.68196 48.5182C9.28916 46.9353 9.98953 45.3895 10.7794 43.889C13.318 47.4268 16.1358 50.7563 19.206 53.8455V53.7353Z" fill="black"/>
</g>
<defs>
<clipPath id="clip0_116_33">
<rect width="72.7692" height="72.7692" fill="white" transform="translate(0.128204 0.166504)"/>
</clipPath>
</defs>
</svg>
