<svg width="51" height="35" viewBox="0 0 51 35" fill="none" xmlns="http://www.w3.org/2000/svg">
<path d="M29.6876 35H42.1876C43.7321 35 45.0446 34.6452 46.1345 34.0272L29.6876 24.0378V35ZM49.7345 28.8034C49.9126 27.9944 50.0032 27.1377 50.0032 26.2492V22.2719H38.9798L49.7313 28.8034H49.7345ZM0.27353 6.17193C0.0883768 7.01824 -0.00333779 7.88296 9.27801e-05 8.75V12.7273H11.0657L0.27353 6.17193ZM20.3126 0H7.81259C6.279 0 4.97509 0.35 3.88994 0.959318L20.3126 10.9343V0ZM3.93994 34.0661C5.01494 34.658 6.30166 35 7.81259 35H20.3126V24.1214L3.93994 34.0661ZM9.27801e-05 22.2727V26.25C9.27801e-05 27.1656 0.0954053 28.0477 0.283687 28.8774L11.1579 22.2727H9.27801e-05ZM46.1837 0.998296C45.0852 0.363523 43.7548 0 42.1876 0H29.6876V11.0178L46.1837 0.998296V0.998296ZM50.0001 12.7273V8.75C50.0001 7.87977 49.9118 7.04057 49.7407 6.24671L39.072 12.7273H50.0001Z" fill="#2E3192"/>
<path d="M39.072 12.7273L49.7407 6.24671C49.2517 3.96852 48.0611 2.0825 46.1837 0.998296L29.6876 11.0178V0H28.1251V14.3182H50.0001V12.7273H39.072ZM0.00012207 20.6818V22.2727H11.1579L0.283716 28.8774C0.800122 31.1484 2.02668 33.013 3.93997 34.0661L20.3126 24.1214V35H21.8751V20.6818H0.00012207ZM50.0001 20.6818H28.1251V35H29.6876V24.0378L46.1345 34.028C48.0259 32.9557 49.2314 31.08 49.7314 28.805L38.9798 22.2727H50.0001V20.6818ZM20.3126 0V10.9343L3.88997 0.959318C1.99153 2.02523 0.778247 3.89773 0.272778 6.17193L11.0657 12.7273H0.00012207V14.3182H21.8751V0H20.3126Z" fill="#E6E7E8"/>
<path d="M28.1251 14.3182V0H21.8751V14.3182H0.00012207V20.6818H21.8751V35H28.1251V20.6818H50.0001V14.3182H28.1251Z" fill="#BE1E2D"/>
<path d="M17.1392 12.7273L1.47512 3.20648C1.1384 3.71557 0.868091 4.27557 0.644653 4.87216L13.572 12.7273H17.1368H17.1392ZM49.2892 30.2989L36.154 22.2727H32.5165L48.3861 31.9924C48.7541 31.4688 49.0574 30.9011 49.2892 30.302V30.2989ZM47.4368 1.90193L29.6634 12.7273L33.272 12.7297L48.6087 3.38068C48.2665 2.7467 47.9056 2.33784 47.4368 1.90193V1.90193ZM1.41653 31.7187C1.76796 32.2637 2.19088 32.7572 2.67356 33.1856L20.3618 22.2727H16.797L1.41653 31.7187Z" fill="#BE1E2D"/>
</svg>
