<svg width="58" height="57" viewBox="0 0 58 57" fill="none" xmlns="http://www.w3.org/2000/svg">
<g clip-path="url(#clip0_81_5)">
<path fill-rule="evenodd" clip-rule="evenodd" d="M28.6573 0C12.8426 0 0.0334473 12.9913 0.0334473 29.0308C0.0334473 41.8769 8.22702 52.7272 19.605 56.5738C21.0362 56.8278 21.5729 55.9569 21.5729 55.1948C21.5729 54.5053 21.5371 52.2191 21.5371 49.7878C14.3454 51.1305 12.4848 48.0097 11.9123 46.3767C11.5903 45.5421 10.1949 42.9656 8.9784 42.2761C7.97656 41.7318 6.54537 40.3891 8.94262 40.3528C11.1967 40.3165 12.8068 42.4575 13.3435 43.3285C15.9197 47.7194 20.0344 46.4856 21.6802 45.7235C21.9307 43.8365 22.6821 42.5664 23.505 41.8406C17.1362 41.1149 10.4812 38.611 10.4812 27.5067C10.4812 24.3496 11.5903 21.7368 13.4151 19.7047C13.1289 18.9789 12.127 16.0032 13.7013 12.0115C13.7013 12.0115 16.0986 11.2494 21.5729 14.9871C23.8628 14.334 26.2958 14.0074 28.7289 14.0074C31.1619 14.0074 33.5949 14.334 35.8848 14.9871C41.3591 11.2131 43.7564 12.0115 43.7564 12.0115C45.3307 16.0032 44.3288 18.9789 44.0426 19.7047C45.8674 21.7368 46.9766 24.3133 46.9766 27.5067C46.9766 38.6472 40.2857 41.1149 33.9169 41.8406C34.9545 42.7478 35.849 44.4897 35.849 47.2113C35.849 51.0942 35.8133 54.215 35.8133 55.1948C35.8133 55.9569 36.3499 56.8641 37.7811 56.5738C43.4634 54.628 48.401 50.9241 51.8991 45.9832C55.3971 41.0424 57.2794 35.1134 57.2811 29.0308C57.2811 12.9913 44.472 0 28.6573 0Z" fill="black"/>
</g>
<defs>
<clipPath id="clip0_81_5">
<rect width="57.2477" height="56.6292" fill="white" transform="translate(0.0334473)"/>
</clipPath>
</defs>
</svg>
