<svg width="73" height="73" viewBox="0 0 73 73" fill="none" xmlns="http://www.w3.org/2000/svg">
<path d="M36.5128 27.3525C36.5128 22.198 32.5712 18.2563 27.4167 18.2563C22.2622 18.2563 18.3205 22.198 18.3205 27.3525C18.3205 32.507 22.2622 36.4487 27.4167 36.4487C32.5712 36.4487 36.5128 32.507 36.5128 27.3525ZM27.4167 33.4166C24.0814 33.4166 21.3526 30.6878 21.3526 27.3525C21.3526 24.0172 24.0814 21.2884 27.4167 21.2884C30.7519 21.2884 33.4808 24.0172 33.4808 27.3525C33.4808 30.6878 30.7519 33.4166 27.4167 33.4166Z" fill="black"/>
<path d="M69.8654 45.5447H66.2269L68.6526 43.1191C69.8654 41.9063 69.8654 40.087 68.6526 38.8742L64.4077 34.6293C63.1949 33.4165 61.3756 33.4165 60.1628 34.6293L57.7372 37.055V33.4165C57.7372 31.5973 56.5244 30.3845 54.7051 30.3845V21.2883C54.7051 19.4691 53.4923 18.2563 51.6731 18.2563H49.5506L51.3699 16.437C52.5827 15.2242 52.5827 13.405 51.3699 12.1922L42.5769 3.70243C41.3641 2.48961 39.5449 2.48961 38.3321 3.70243L36.5128 5.52166V3.09602C36.5128 1.27679 35.3 0.0639648 33.4808 0.0639648H21.3526C19.5333 0.0639648 18.3205 1.27679 18.3205 3.09602V5.21845L16.8045 3.70243C15.5917 2.48961 13.7724 2.48961 12.5596 3.70243L4.06987 12.1922C2.85705 13.405 2.85705 15.2242 4.06987 16.437L5.5859 18.2563H3.16026C1.34102 18.2563 0.128204 19.4691 0.128204 21.2883V33.4165C0.128204 35.2358 1.34102 36.4486 3.16026 36.4486H5.5859L4.06987 37.9646C2.85705 39.1774 2.85705 40.9967 4.06987 42.2095L12.5596 50.6992C13.7724 51.912 15.5917 51.912 16.8045 50.6992L18.3205 49.4864V51.6088C18.3205 53.4281 19.5333 54.6409 21.3526 54.6409H30.4487C30.4487 56.4601 31.6615 57.6729 33.4808 57.6729H37.1192L34.6936 60.0986C33.4808 61.3114 33.4808 63.1306 34.6936 64.3435L38.9385 68.5883C40.1513 69.8011 41.9705 69.8011 43.1833 68.5883L45.609 66.1627V69.8011C45.609 71.6204 46.8218 72.8332 48.641 72.8332H54.7051C56.5244 72.8332 57.7372 71.6204 57.7372 69.8011V66.1627L60.1628 68.5883C61.3756 69.8011 63.1949 69.8011 64.4077 68.5883L68.6526 64.3435C69.8654 63.1306 69.8654 61.3114 68.6526 60.0986L66.2269 57.6729H69.8654C71.6846 57.6729 72.8974 56.4601 72.8974 54.6409V48.5768C72.8974 46.7576 71.6846 45.5447 69.8654 45.5447ZM24.3846 48.5768V45.2415C21.6558 44.6351 19.2301 43.7255 16.8045 42.2095L14.6821 44.3319L10.4372 40.087L12.5596 37.9646C11.0436 35.8422 9.83077 33.1133 9.52756 30.3845H6.19231V24.3204H9.52756C10.134 21.5915 11.0436 18.8627 12.8628 16.7402L10.4372 14.3146L14.6821 10.0697L17.1077 12.4954C19.2301 10.9793 21.6558 10.0697 24.3846 9.46332V6.12807H30.4487V9.46332C33.1776 10.0697 35.9064 10.9793 38.0288 12.4954L40.4545 10.0697L44.6994 14.3146L42.2737 16.7402C43.7897 18.8627 45.0026 21.2883 45.3058 24.3204H48.641V30.3845H45.3058C45.0026 33.1133 43.7897 35.539 42.2737 37.6614L44.6994 40.087L40.4545 44.3319L38.0288 41.9063C35.9064 43.4223 33.1776 44.6351 30.4487 45.2415V48.5768H24.3846ZM69.8654 54.6409H66.5301C66.2269 56.4601 65.3173 58.2793 64.4077 60.0986L66.8333 62.5242L62.2853 66.7691L59.8596 64.3435C58.3436 65.2531 56.5244 66.1627 54.4019 66.4659V69.8011H48.3378V66.4659C46.5186 66.1627 44.6994 65.2531 42.8801 64.3435L40.4545 66.7691L36.5128 62.221L38.9385 59.7954C38.0288 58.2794 37.1192 56.4601 36.816 54.3377H33.4808C35.3 54.3377 36.5128 53.1249 36.5128 51.3056V48.88L38.3321 50.6992C39.5449 51.912 41.3641 51.912 42.5769 50.6992C42.5769 51.0024 42.5769 51.3056 42.5769 51.6088C42.5769 56.7633 46.5186 60.705 51.6731 60.705C56.8276 60.705 60.7692 56.7633 60.7692 51.6088C60.7692 46.4543 56.8276 42.5127 51.6731 42.5127C51.3699 42.5127 51.0667 42.5127 50.7635 42.5127L43.4865 49.7896L51.0667 42.2095C52.2795 40.9967 52.2795 39.1774 51.0667 37.9646L49.5506 36.4486H51.6731C53.4923 36.4486 54.7051 35.2358 54.7051 33.4165V36.7518C56.5244 37.055 58.3436 37.9646 60.1628 38.8742L62.5885 36.4486L66.8333 40.6935L64.4077 43.1191C65.3173 44.6351 66.2269 46.4543 66.5301 48.5768H69.8654V54.6409ZM45.609 51.6088C45.609 48.2736 48.3378 45.5447 51.6731 45.5447C55.0083 45.5447 57.7372 48.2736 57.7372 51.6088C57.7372 54.9441 55.0083 57.6729 51.6731 57.6729C48.3378 57.6729 45.609 54.9441 45.609 51.6088Z" fill="black"/>
</svg>
