<svg width="73" height="73" viewBox="0 0 73 73" fill="none" xmlns="http://www.w3.org/2000/svg">
<g clip-path="url(#clip0_116_42)">
<path d="M45.609 0.115479V42.5642C45.609 47.7187 41.6673 51.6604 36.5128 51.6604C31.3583 51.6604 27.4167 47.7187 27.4167 42.5642V0.115479H6.19231V42.5642C6.19231 59.2405 19.8365 72.8847 36.5128 72.8847C53.1891 72.8847 66.8333 59.2405 66.8333 42.5642V0.115479H45.609ZM12.2564 6.17958H21.3526V18.3078H12.2564V6.17958ZM12.2564 21.3398H21.3526V24.3719H12.2564V21.3398ZM60.7692 42.5642C60.7692 55.9052 49.8538 66.8206 36.5128 66.8206C23.1718 66.8206 12.2564 55.9052 12.2564 42.5642V27.4039H21.3526V42.5642C21.3526 51.0539 28.0231 57.7245 36.5128 57.7245C45.0026 57.7245 51.6731 51.0539 51.6731 42.5642V27.4039H60.7692V42.5642ZM60.7692 24.3719H51.6731V21.3398H60.7692V24.3719ZM60.7692 18.3078H51.6731V6.17958H60.7692V18.3078Z" fill="black"/>
</g>
<defs>
<clipPath id="clip0_116_42">
<rect width="72.7692" height="72.7692" fill="white" transform="translate(0.128204 0.115479)"/>
</clipPath>
</defs>
</svg>
