<svg width="60" height="60" viewBox="0 0 60 60" fill="none" xmlns="http://www.w3.org/2000/svg">
<path d="M29.9105 7.85235C32.5951 6.04027 35.2796 4.42953 37.9642 3.22148C40.6488 2.01342 43.3333 1.00671 45.8389 0.402686C49.2394 -0.201341 51.9239 -0.201341 54.0716 0.604028C56.3982 1.4094 58.009 3.02014 59.0828 5.2349C59.9776 7.24832 60.1566 9.66443 59.7987 12.4832C59.0828 16.3087 57.1141 20.9396 53.7136 26.1745C53.1767 26.9799 52.6398 27.7852 51.9239 28.5906C52.6398 29.5973 53.1767 30.4027 53.7136 31.2081C57.1141 36.443 59.0828 41.0738 59.7987 44.8993C60.1566 47.5168 59.9776 50.1342 59.0828 52.1477C58.009 54.1611 56.3982 55.7718 54.0716 56.5772C52.2819 57.3826 50.1342 57.5839 47.4497 57.1812C47.2707 57.3826 47.2707 57.3826 47.0917 57.5839C45.8389 58.9933 44.0492 60 42.2595 60C40.2908 60 38.6801 58.9933 37.4273 57.5839C36.1745 56.1745 35.2796 54.3624 35.2796 52.1477C35.2796 49.9329 36.1745 48.1208 37.4273 46.7114C38.6801 45.302 40.2908 44.4966 42.2595 44.4966C44.0492 44.4966 45.8389 45.302 47.0917 46.7114C47.9866 47.7181 48.7025 49.1275 48.8814 50.7383C50.3132 50.7383 51.387 50.7383 52.2819 50.3356C52.9978 50.1342 53.5347 49.7315 53.7136 49.1275C54.0716 48.3222 54.2506 47.3154 53.8926 45.906C53.5347 43.0873 51.9239 39.4631 49.0604 35.2349C48.7025 34.6309 48.3445 34.2282 47.9866 33.6242C44.2282 38.0537 39.7539 42.2819 35.2796 45.7047C28.1208 51.3423 20.4251 55.5705 14.1611 56.7785C10.7606 57.5839 8.07607 57.3826 5.92841 56.5772C3.60179 55.7718 1.99105 54.1611 0.917227 52.1477C0.0223728 50.1342 -0.156598 47.5168 0.201344 44.8993C0.738257 41.0738 2.70694 36.443 6.10738 31.2081C6.82327 30.4027 7.36018 29.5973 7.89709 28.5906C7.36018 27.7852 6.82327 26.9799 6.10738 26.1745C2.70694 20.9396 0.738257 16.3087 0.201344 12.4832C-0.156598 9.66443 0.0223728 7.24832 0.917227 5.2349C1.99105 3.02014 3.60179 1.4094 5.92841 0.604028C8.07607 -0.201341 10.7606 -0.201341 14.1611 0.402686C18.9933 1.4094 24.3624 4.02685 29.9105 7.85235ZM20.0671 30.8054C21.6779 30.8054 23.2886 31.6107 24.3624 32.8188C25.4362 34.0268 26.1521 35.8389 26.1521 37.651C26.1521 39.6644 25.4362 41.2752 24.3624 42.4832C23.2886 43.8926 21.6779 44.4966 20.0671 44.4966C18.4564 44.4966 16.8456 43.8926 15.7718 42.4832C14.698 41.2752 13.9821 39.6644 13.9821 37.651C13.9821 37.047 13.9821 36.6443 14.1611 36.0403C13.2662 35.2349 12.5503 34.4295 11.8345 33.6242C11.4765 34.2282 11.1186 34.6309 10.9396 35.2349C8.07607 39.4631 6.46533 43.0873 5.92841 45.906C5.74944 47.3154 5.92841 48.3222 6.10738 49.1275C6.46533 49.7315 7.00224 50.1342 7.71812 50.3356C8.97092 50.7383 10.7606 50.9396 13.0873 50.3356C18.4564 49.1275 25.2573 45.5034 31.8792 40.4698C36.3535 37.047 40.4698 33.0201 44.2282 28.5906C40.4698 24.3624 36.3535 20.3356 31.8792 16.9128C25.2573 11.8792 18.4564 8.05369 13.0873 7.04698C10.7606 6.44295 8.97092 6.44295 7.71812 6.84564C7.00224 7.24832 6.46533 7.65101 6.10738 8.25503C5.92841 8.85906 5.74944 10.0671 5.92841 11.2752C6.46533 14.094 8.07607 17.9195 10.9396 22.1477C11.1186 22.7517 11.4765 23.1544 11.8345 23.7584C12.7293 22.7517 13.4452 21.9463 14.34 20.9396C14.34 20.5369 14.1611 19.9329 14.1611 19.5302C14.1611 17.5168 14.877 15.7047 16.1298 14.4966C17.2036 13.0872 18.8143 12.2819 20.604 12.2819C22.2148 12.2819 23.8255 13.0872 25.0783 14.4966C26.1521 15.7047 26.868 17.5168 26.868 19.5302C26.868 21.3423 26.1521 23.1544 25.0783 24.5638C23.8255 25.7718 22.2148 26.5772 20.604 26.5772C19.7092 26.5772 18.8143 26.3758 18.0984 25.9732C17.3826 26.9799 16.4877 27.7852 15.7718 28.5906C16.4877 29.5973 17.2036 30.4027 18.0984 31.2081C18.6353 31.0067 19.3512 30.8054 20.0671 30.8054ZM21.1409 36.6443C20.783 36.2416 20.4251 36.0403 20.0671 36.0403C19.7092 36.0403 19.3512 36.2416 18.9933 36.6443C18.8143 36.8456 18.6353 37.2483 18.6353 37.651C18.6353 38.0537 18.8143 38.4564 18.9933 38.8591C19.3512 39.0604 19.7092 39.2617 20.0671 39.2617C20.4251 39.2617 20.783 39.0604 21.1409 38.8591C21.3199 38.4564 21.4989 38.0537 21.4989 37.651C21.4989 37.2483 21.3199 36.8456 21.1409 36.6443ZM43.6913 50.3356C43.3333 49.9329 42.7964 49.7315 42.2595 49.7315C41.5436 49.7315 41.0067 49.9329 40.6488 50.3356C40.2908 50.9396 40.1119 51.5436 40.1119 52.1477C40.1119 52.7517 40.2908 53.5571 40.6488 53.9597C41.0067 54.3624 41.5436 54.5638 42.2595 54.5638C42.7964 54.5638 43.3333 54.3624 43.6913 53.9597C44.2282 53.5571 44.4072 52.7517 44.4072 52.1477C44.4072 51.5436 44.2282 50.9396 43.6913 50.3356ZM21.6779 18.1208C21.4989 17.9195 20.962 17.7181 20.604 17.7181C20.0671 17.7181 19.7092 17.9195 19.3512 18.1208C19.1723 18.5235 18.9933 18.9262 18.9933 19.5302C18.9933 19.9329 19.1723 20.5369 19.3512 20.7383C19.7092 21.1409 20.0671 21.3423 20.604 21.3423C20.962 21.3423 21.4989 21.1409 21.6779 20.7383C22.0358 20.5369 22.2148 19.9329 22.2148 19.5302C22.2148 18.9262 22.0358 18.5235 21.6779 18.1208ZM47.9866 23.7584C48.3445 23.1544 48.7025 22.7517 49.0604 22.1477C51.9239 17.9195 53.5347 14.094 53.8926 11.2752C54.0716 10.0671 54.0716 8.85906 53.7136 8.25503C53.5347 7.65101 52.9978 7.24832 52.2819 6.84564C51.0291 6.44295 49.2394 6.44295 46.9128 7.04698C44.9441 7.44967 42.6175 8.25503 40.1119 9.26175C38.6801 10.0671 37.0694 10.8725 35.6376 11.8792C39.9329 15.302 44.2282 19.3289 47.9866 23.7584Z" fill="black"/>
</svg>
