<svg width="73" height="73" viewBox="0 0 73 73" fill="none" xmlns="http://www.w3.org/2000/svg">
<g clip-path="url(#clip0_125_13)">
<path d="M63.6737 27.2889C63.2998 27.3029 62.9272 27.3404 62.5579 27.401L58.0765 18.4412C59.0234 17.468 59.74 16.2948 60.1734 15.008C60.6068 13.7212 60.746 12.3535 60.5807 11.0057C60.4155 9.65799 59.95 8.36447 59.2185 7.22046C58.4871 6.07645 57.5084 5.11109 56.3544 4.39548C55.2004 3.67988 53.9006 3.23225 52.5507 3.08559C51.2008 2.93892 49.8352 3.09694 48.5544 3.54801C47.2737 3.99908 46.1105 4.73171 45.1504 5.69194C44.1903 6.65217 43.4579 7.81554 43.0071 9.09636H29.7629C29.3114 7.81778 28.5791 6.65663 27.6199 5.69826C26.6606 4.7399 25.4988 4.00867 24.2198 3.55833C22.9408 3.108 21.5771 2.94999 20.229 3.09594C18.8809 3.24189 17.5827 3.68807 16.4297 4.4017C15.2767 5.11533 14.2983 6.07827 13.5664 7.21973C12.8345 8.36118 12.3676 9.65215 12.2002 10.9977C12.0328 12.3433 12.169 13.7093 12.5989 14.9953C13.0288 16.2814 13.7414 17.4547 14.6844 18.4291L10.1969 27.401C9.83267 27.3411 9.46509 27.3036 9.09625 27.2889C6.68377 27.2889 4.37011 28.2472 2.66423 29.9531C0.958352 31.659 0 33.9726 0 36.3851C0 38.7976 0.958352 41.1113 2.66423 42.8171C4.37011 44.523 6.68377 45.4814 9.09625 45.4814C9.4661 45.4667 9.8347 45.4293 10.1999 45.3692L14.6844 54.3441C13.7383 55.3183 13.0229 56.4922 12.5907 57.7795C12.1585 59.0668 12.0206 60.4346 12.1872 61.7822C12.3537 63.1299 12.8205 64.423 13.5531 65.5663C14.2856 66.7097 15.2654 67.6741 16.4201 68.3886C17.5748 69.1031 18.8752 69.5494 20.2253 69.6947C21.5754 69.84 22.9409 69.6806 24.2212 69.2282C25.5015 68.7758 26.664 68.0419 27.6231 67.0807C28.5822 66.1194 29.3134 64.9552 29.7629 63.6739H43.0071C43.4579 64.9524 44.1894 66.1137 45.1479 67.0725C46.1064 68.0312 47.2675 68.763 48.5459 69.2141C49.8244 69.6652 51.1877 69.8242 52.5356 69.6793C53.8835 69.5344 55.1819 69.0894 56.3352 68.3769C57.4886 67.6644 58.4677 66.7025 59.2005 65.5619C59.9334 64.4214 60.4014 63.1312 60.5701 61.786C60.7389 60.4409 60.6041 59.075 60.1758 57.7887C59.7474 56.5025 59.0363 55.3286 58.0947 54.3532L62.5852 45.3722C62.9455 45.4307 63.309 45.4671 63.6737 45.4814C66.0862 45.4814 68.3999 44.523 70.1058 42.8171C71.8116 41.1113 72.77 38.7976 72.77 36.3851C72.77 33.9726 71.8116 31.659 70.1058 29.9531C68.3999 28.2472 66.0862 27.2889 63.6737 27.2889ZM9.09625 39.4172C8.49656 39.4172 7.91034 39.2394 7.41172 38.9062C6.91309 38.573 6.52446 38.0995 6.29497 37.5454C6.06548 36.9914 6.00543 36.3817 6.12243 35.7936C6.23942 35.2054 6.5282 34.6651 6.95224 34.2411C7.37629 33.8171 7.91655 33.5283 8.50472 33.4113C9.09289 33.2943 9.70254 33.3543 10.2566 33.5838C10.8106 33.8133 11.2842 34.202 11.6173 34.7006C11.9505 35.1992 12.1283 35.7854 12.1283 36.3851C12.1283 37.1893 11.8089 37.9605 11.2403 38.5291C10.6716 39.0977 9.90041 39.4172 9.09625 39.4172ZM51.5454 9.09636C52.1451 9.09636 52.7313 9.27419 53.23 9.60736C53.7286 9.94053 54.1172 10.4141 54.3467 10.9681C54.5762 11.5222 54.6362 12.1318 54.5192 12.72C54.4022 13.3081 54.1135 13.8484 53.6894 14.2724C53.2654 14.6965 52.7251 14.9853 52.1369 15.1023C51.5488 15.2193 50.9391 15.1592 50.3851 14.9297C49.831 14.7002 49.3575 14.3116 49.0243 13.813C48.6912 13.3144 48.5133 12.7281 48.5133 12.1284C48.5133 11.3243 48.8328 10.5531 49.4014 9.98444C49.97 9.41581 50.7413 9.09636 51.5454 9.09636ZM21.2246 9.09636C21.8243 9.09636 22.4105 9.27419 22.9091 9.60736C23.4077 9.94053 23.7964 10.4141 24.0259 10.9681C24.2554 11.5222 24.3154 12.1318 24.1984 12.72C24.0814 13.3081 23.7926 13.8484 23.3686 14.2724C22.9445 14.6965 22.4043 14.9853 21.8161 15.1023C21.2279 15.2193 20.6183 15.1592 20.0643 14.9297C19.5102 14.7002 19.0367 14.3116 18.7035 13.813C18.3703 13.3144 18.1925 12.7281 18.1925 12.1284C18.1925 11.3243 18.512 10.5531 19.0806 9.98444C19.6492 9.41581 20.4204 9.09636 21.2246 9.09636ZM21.2246 63.6739C20.6249 63.6739 20.0387 63.496 19.54 63.1629C19.0414 62.8297 18.6528 62.3561 18.4233 61.8021C18.1938 61.2481 18.1338 60.6384 18.2508 60.0502C18.3678 59.4621 18.6565 58.9218 19.0806 58.4978C19.5046 58.0737 20.0449 57.7849 20.6331 57.668C21.2212 57.551 21.8309 57.611 22.3849 57.8405C22.939 58.07 23.4125 58.4586 23.7457 58.9572C24.0788 59.4559 24.2567 60.0421 24.2567 60.6418C24.2567 61.4459 23.9372 62.2172 23.3686 62.7858C22.8 63.3544 22.0287 63.6739 21.2246 63.6739ZM51.5454 63.6739C50.9457 63.6739 50.3595 63.496 49.8609 63.1629C49.3623 62.8297 48.9736 62.3561 48.7441 61.8021C48.5146 61.2481 48.4546 60.6384 48.5716 60.0502C48.6886 59.4621 48.9774 58.9218 49.4014 58.4978C49.8255 58.0737 50.3657 57.7849 50.9539 57.668C51.542 57.551 52.1517 57.611 52.7057 57.8405C53.2598 58.07 53.7333 58.4586 54.0665 58.9572C54.3997 59.4559 54.5775 60.0421 54.5775 60.6418C54.5775 61.4459 54.258 62.2172 53.6894 62.7858C53.1208 63.3544 52.3496 63.6739 51.5454 63.6739ZM52.6612 51.6577C52.292 51.597 51.9193 51.5596 51.5454 51.5455C49.6698 51.5493 47.8416 52.1345 46.3124 53.2206C44.7833 54.3066 43.6285 55.8401 43.0071 57.6097H29.7629C29.1415 55.8401 27.9867 54.3066 26.4576 53.2206C24.9284 52.1345 23.1002 51.5493 21.2246 51.5455C20.8547 51.5602 20.4861 51.5976 20.1209 51.6577L15.6365 42.6827C17.2745 40.995 18.1906 38.7355 18.1906 36.3836C18.1906 34.0317 17.2745 31.7722 15.6365 30.0844L20.1239 21.1125C20.4882 21.1725 20.8557 21.2099 21.2246 21.2247C23.1002 21.2209 24.9284 20.6357 26.4576 19.5496C27.9867 18.4636 29.1415 16.9302 29.7629 15.1605H43.0071C43.6196 17.1499 44.9327 18.8496 46.7029 19.9447C48.4732 21.0397 50.5804 21.4557 52.6339 21.1155L57.1214 30.0966C55.4854 31.7872 54.5724 34.0489 54.5764 36.4015C54.5804 38.7542 55.5009 41.0128 57.1426 42.6979L52.6612 51.6577ZM63.6737 39.4172C63.0741 39.4172 62.4878 39.2394 61.9892 38.9062C61.4906 38.573 61.102 38.0995 60.8725 37.5454C60.643 36.9914 60.5829 36.3817 60.6999 35.7936C60.8169 35.2054 61.1057 34.6651 61.5297 34.2411C61.9538 33.8171 62.494 33.5283 63.0822 33.4113C63.6704 33.2943 64.28 33.3543 64.8341 33.5838C65.3881 33.8133 65.8617 34.202 66.1948 34.7006C66.528 35.1992 66.7058 35.7854 66.7058 36.3851C66.7058 37.1893 66.3864 37.9605 65.8178 38.5291C65.2491 39.0977 64.4779 39.4172 63.6737 39.4172Z" fill="black"/>
</g>
<defs>
<clipPath id="clip0_125_13">
<rect width="72.77" height="72.77" fill="white"/>
</clipPath>
</defs>
</svg>
