<svg width="73" height="73" viewBox="0 0 73 73" fill="none" xmlns="http://www.w3.org/2000/svg">
<g clip-path="url(#clip0_116_37)">
<path d="M72.8974 9.23727C72.8974 4.08278 68.9558 0.141113 63.8013 0.141113C61.9821 0.141113 60.7692 1.35393 60.7692 3.17316C60.7692 4.9924 61.9821 6.20522 63.8013 6.20522C65.6205 6.20522 66.8333 7.41804 66.8333 9.23727V43.4994C63.8013 41.0738 60.1628 39.5578 56.2212 39.5578C51.9763 39.5578 48.3378 41.0738 45.3058 43.4994C43.1833 41.0738 40.1513 39.5578 36.5128 39.5578C32.8744 39.5578 29.8423 41.0738 27.7199 43.4994C24.6878 41.0738 21.0494 39.5578 16.8045 39.5578C12.8628 39.5578 9.22436 41.0738 6.19231 43.4994V9.23727C6.19231 7.41804 7.40513 6.20522 9.22436 6.20522C11.0436 6.20522 12.2564 4.9924 12.2564 3.17316C12.2564 1.35393 11.0436 0.141113 9.22436 0.141113C4.06987 0.141113 0.128204 4.08278 0.128204 9.23727V54.718C0.128204 55.3244 0.128204 55.9309 0.128204 56.2341C0.128204 65.3302 7.70833 72.9103 16.8045 72.9103C25.9006 72.9103 33.4808 65.3302 33.4808 56.2341C33.4808 53.5052 32.5712 49.2603 29.8423 45.9251C30.7519 43.8027 33.1776 42.5898 36.5128 42.5898C39.8481 42.5898 41.9705 44.4091 43.1833 45.9251C40.4545 49.2603 39.5449 53.5052 39.5449 56.2341C39.5449 65.3302 47.125 72.9103 56.2212 72.9103C65.3173 72.9103 72.8974 65.3302 72.8974 56.2341C72.8974 55.6277 72.8974 55.0212 72.8974 54.718V9.23727ZM16.8045 66.8462C11.0436 66.8462 6.19231 61.995 6.19231 56.2341C6.19231 50.4732 11.0436 45.6219 16.8045 45.6219C22.5654 45.6219 27.4167 50.4732 27.4167 56.2341C27.4167 61.995 22.5654 66.8462 16.8045 66.8462ZM56.2212 66.8462C50.4603 66.8462 45.609 61.995 45.609 56.2341C45.609 50.4732 50.4603 45.6219 56.2212 45.6219C61.9821 45.6219 66.8333 50.4732 66.8333 56.2341C66.8333 61.995 61.9821 66.8462 56.2212 66.8462Z" fill="black"/>
<path d="M57.7372 48.957V51.9891C59.5564 52.5955 60.7692 54.4147 60.7692 56.234C60.7692 56.8404 60.7692 57.1436 60.466 57.75H63.4981C63.4981 57.1436 63.8013 56.8404 63.8013 56.234C63.8013 52.5955 61.0724 49.5634 57.7372 48.957Z" fill="black"/>
<path d="M18.3205 48.957V51.9891C20.1397 52.5955 21.3526 54.4147 21.3526 56.234C21.3526 56.8404 21.3526 57.1436 21.0494 57.75H24.0814C24.3846 57.1436 24.3846 56.8404 24.3846 56.234C24.3846 52.5955 21.6558 49.5634 18.3205 48.957Z" fill="black"/>
</g>
<defs>
<clipPath id="clip0_116_37">
<rect width="72.7692" height="72.7692" fill="white" transform="translate(0.128204 0.141113)"/>
</clipPath>
</defs>
</svg>
