<svg width="58" height="57" viewBox="0 0 58 57" fill="none" xmlns="http://www.w3.org/2000/svg">
<g clip-path="url(#clip0_81_7)">
<path fill-rule="evenodd" clip-rule="evenodd" d="M57.8346 28.3146C57.8346 43.9514 45.0183 56.6292 29.2108 56.6292C13.4032 56.6292 0.586914 43.9514 0.586914 28.3146C0.586914 12.6779 13.4032 0 29.2108 0C45.0183 0 57.8346 12.6779 57.8346 28.3146ZM30.2364 20.9033C27.4528 22.0476 21.8878 24.419 13.544 28.0149C12.1891 28.5482 11.4783 29.0697 11.4139 29.5793C11.3042 30.4429 12.3966 30.7827 13.8803 31.2428C14.0831 31.3065 14.293 31.3702 14.5076 31.441C15.9698 31.9106 17.9354 32.4603 18.9563 32.4816C19.8842 32.5005 20.9194 32.1229 22.062 31.349C29.8572 26.1415 33.8812 23.5106 34.1341 23.4539C34.313 23.4138 34.561 23.3619 34.728 23.5106C34.895 23.6569 34.8783 23.9353 34.8616 24.0108C34.7519 24.4662 30.4726 28.4043 28.2542 30.4429C27.5625 31.0776 27.0735 31.5283 26.9733 31.6321C26.7491 31.861 26.5201 32.0805 26.3007 32.2905C24.941 33.5835 23.9249 34.5556 26.3579 36.1412C27.5267 36.9034 28.4618 37.5334 29.3944 38.161C30.413 38.8476 31.4291 39.5319 32.7458 40.3861C33.0798 40.6031 33.3994 40.8273 33.7119 41.0467C34.8974 41.8844 35.9636 42.6347 37.2803 42.5167C38.0436 42.446 38.8355 41.7357 39.2363 39.6145C40.1832 34.5981 42.0486 23.7347 42.4803 19.2563C42.5066 18.8845 42.4906 18.5109 42.4326 18.1426C42.3979 17.8451 42.2514 17.5714 42.0223 17.3757C41.6812 17.0997 41.1517 17.0407 40.9131 17.0454C39.8374 17.0643 38.1867 17.6329 30.2364 20.9033Z" fill="black"/>
</g>
<defs>
<clipPath id="clip0_81_7">
<rect width="57.2477" height="56.6292" fill="white" transform="translate(0.586914)"/>
</clipPath>
</defs>
</svg>
