<svg width="58" height="57" viewBox="0 0 58 57" fill="none" xmlns="http://www.w3.org/2000/svg">
<g clip-path="url(#clip0_81_11)">
<path d="M29.3178 0C13.5107 0 0.693909 12.6784 0.693909 28.3146C0.693909 43.9508 13.5107 56.6292 29.3178 56.6292C45.1248 56.6292 57.9416 43.9508 57.9416 28.3146C57.9416 12.6784 45.1248 0 29.3178 0ZM43.0738 21.3434C43.093 21.6404 43.093 21.9501 43.093 22.2535C43.093 31.5316 35.9498 42.2191 22.8966 42.2191C18.8713 42.2191 15.14 41.0625 11.9965 39.0716C12.5715 39.1348 13.121 39.1601 13.7088 39.1601C17.0312 39.1601 20.0853 38.0478 22.5196 36.1643C19.4016 36.1011 16.782 34.0787 15.8875 31.2978C16.9801 31.4558 17.9641 31.4558 19.0886 31.1713C17.4831 30.8487 16.0401 29.9862 15.0047 28.7304C13.9692 27.4745 13.4052 25.9029 13.4085 24.2823V24.1938C14.3477 24.7184 15.4531 25.0407 16.6095 25.085C15.6374 24.4441 14.8401 23.5758 14.2884 22.5571C13.7367 21.5384 13.4476 20.4008 13.4469 19.2451C13.4469 17.9368 13.7919 16.7423 14.4116 15.7058C16.1936 17.8757 18.4172 19.6505 20.938 20.9147C23.4588 22.1789 26.2203 22.9042 29.043 23.0435C28.0399 18.2718 31.6434 14.4101 35.9754 14.4101C38.0199 14.4101 39.86 15.257 41.157 16.6222C42.7607 16.3251 44.2942 15.731 45.6615 14.9347C45.1311 16.559 44.0194 17.9305 42.5435 18.7963C43.9747 18.6447 45.3548 18.2528 46.6326 17.7029C45.6679 19.106 44.4603 20.3511 43.0738 21.3434Z" fill="black"/>
</g>
<defs>
<clipPath id="clip0_81_11">
<rect width="57.2477" height="56.6292" fill="white" transform="translate(0.693909)"/>
</clipPath>
</defs>
</svg>
