<svg width="58" height="57" viewBox="0 0 58 57" fill="none" xmlns="http://www.w3.org/2000/svg">
<g clip-path="url(#clip0_81_9)">
<path d="M37.5506 0H19.9773C3.94083 0 0.139221 3.76053 0.139221 19.6238V37.0072C0.139221 52.8705 3.94083 56.631 19.9773 56.631H37.5506C53.5871 56.631 57.3887 52.8705 57.3887 37.0072V19.6238C57.3887 3.76053 53.5495 0 37.5506 0ZM46.356 40.3979H42.2002C40.6259 40.3979 40.141 39.1626 37.3091 36.3241C34.8492 33.9651 33.7597 33.6519 33.1532 33.6519C32.2963 33.6519 32.053 33.8908 32.053 35.0535V38.768C32.053 39.7643 31.7364 40.3625 29.0708 40.3625C24.6627 40.3625 19.7716 37.7257 16.3421 32.8131C11.1701 25.6141 9.75504 20.2219 9.75504 19.1071C9.75504 18.5071 9.99656 17.9462 11.1612 17.9462H15.326C16.3797 17.9462 16.7804 18.4257 17.1901 19.5406C19.2492 25.4212 22.6787 30.5727 24.0938 30.5727C24.6162 30.5727 24.8577 30.3338 24.8577 29.0154V22.9419C24.6985 20.1405 23.2083 19.8999 23.2083 18.9053C23.2083 18.4257 23.609 17.9462 24.2512 17.9462H30.8007C31.6863 17.9462 32.0119 18.4257 32.0119 19.4574V27.651C32.0119 28.5358 32.4126 28.849 32.6541 28.849C33.1765 28.849 33.6238 28.5358 34.5916 27.5767C37.5828 24.2585 39.726 19.1424 39.726 19.1424C40.0051 18.5425 40.4899 17.9815 41.5436 17.9815H45.7084C46.9571 17.9815 47.2362 18.6169 46.9571 19.5017C46.4347 21.8978 41.3379 29.0136 41.3379 29.0136C40.8996 29.7321 40.7314 30.0453 41.3379 30.847C41.7851 31.4469 43.2396 32.691 44.2074 33.8059C45.9875 35.8056 47.356 37.4832 47.721 38.6441C48.1307 39.7962 47.526 40.3961 46.3506 40.3961L46.356 40.3979Z" fill="black"/>
</g>
<defs>
<clipPath id="clip0_81_9">
<rect width="57.2477" height="56.6292" fill="white" transform="translate(0.140442)"/>
</clipPath>
</defs>
</svg>
